# Tiled2Unity generated file. Do not modify by hand.
# Wavefront file for 'office_mesh_0001.obj'

# Vertices (Count = 384)
v 0 -1 0
v -1 -1 0
v -1 0 0
v 0 0 0
v -1 -1 0
v -2 -1 0
v -2 0 0
v -1 0 0
v -2 -1 0
v -3 -1 0
v -3 0 0
v -2 0 0
v -3 -1 0
v -4 -1 0
v -4 0 0
v -3 0 0
v -4 -1 0
v -5 -1 0
v -5 0 0
v -4 0 0
v -5 -1 0
v -6 -1 0
v -6 0 0
v -5 0 0
v -6 -1 0
v -7 -1 0
v -7 0 0
v -6 0 0
v -7 -1 0
v -8 -1 0
v -8 0 0
v -7 0 0
v -8 -1 0
v -9 -1 0
v -9 0 0
v -8 0 0
v -9 -1 0
v -10 -1 0
v -10 0 0
v -9 0 0
v -10 -1 0
v -11 -1 0
v -11 0 0
v -10 0 0
v -11 -1 0
v -12 -1 0
v -12 0 0
v -11 0 0
v -12 -1 0
v -13 -1 0
v -13 0 0
v -12 0 0
v -13 -1 0
v -14 -1 0
v -14 0 0
v -13 0 0
v -14 -1 0
v -15 -1 0
v -15 0 0
v -14 0 0
v -15 -1 0
v -16 -1 0
v -16 0 0
v -15 0 0
v -16 -1 0
v -17 -1 0
v -17 0 0
v -16 0 0
v -17 -1 0
v -18 -1 0
v -18 0 0
v -17 0 0
v -18 -1 0
v -19 -1 0
v -19 0 0
v -18 0 0
v -19 -1 0
v -20 -1 0
v -20 0 0
v -19 0 0
v -20 -1 0
v -21 -1 0
v -21 0 0
v -20 0 0
v -21 -1 0
v -22 -1 0
v -22 0 0
v -21 0 0
v -22 -1 0
v -23 -1 0
v -23 0 0
v -22 0 0
v -23 -1 0
v -24 -1 0
v -24 0 0
v -23 0 0
v -24 -1 0
v -25 -1 0
v -25 0 0
v -24 0 0
v -25 -1 0
v -26 -1 0
v -26 0 0
v -25 0 0
v -26 -1 0
v -27 -1 0
v -27 0 0
v -26 0 0
v -27 -1 0
v -28 -1 0
v -28 0 0
v -27 0 0
v -28 -1 0
v -29 -1 0
v -29 0 0
v -28 0 0
v -29 -1 0
v -30 -1 0
v -30 0 0
v -29 0 0
v -30 -1 0
v -31 -1 0
v -31 0 0
v -30 0 0
v -31 -1 0
v -32 -1 0
v -32 0 0
v -31 0 0
v 0 -2 0
v -1 -2 0
v -1 -1 0
v 0 -1 0
v -1 -2 0
v -2 -2 0
v -2 -1 0
v -1 -1 0
v -2 -2 0
v -3 -2 0
v -3 -1 0
v -2 -1 0
v -3 -2 0
v -4 -2 0
v -4 -1 0
v -3 -1 0
v -4 -2 0
v -5 -2 0
v -5 -1 0
v -4 -1 0
v -5 -2 0
v -6 -2 0
v -6 -1 0
v -5 -1 0
v -6 -2 0
v -7 -2 0
v -7 -1 0
v -6 -1 0
v -7 -2 0
v -8 -2 0
v -8 -1 0
v -7 -1 0
v -8 -2 0
v -9 -2 0
v -9 -1 0
v -8 -1 0
v -9 -2 0
v -10 -2 0
v -10 -1 0
v -9 -1 0
v -10 -2 0
v -11 -2 0
v -11 -1 0
v -10 -1 0
v -11 -2 0
v -12 -2 0
v -12 -1 0
v -11 -1 0
v -12 -2 0
v -13 -2 0
v -13 -1 0
v -12 -1 0
v -13 -2 0
v -14 -2 0
v -14 -1 0
v -13 -1 0
v -14 -2 0
v -15 -2 0
v -15 -1 0
v -14 -1 0
v -15 -2 0
v -16 -2 0
v -16 -1 0
v -15 -1 0
v -16 -2 0
v -17 -2 0
v -17 -1 0
v -16 -1 0
v -17 -2 0
v -18 -2 0
v -18 -1 0
v -17 -1 0
v -18 -2 0
v -19 -2 0
v -19 -1 0
v -18 -1 0
v -19 -2 0
v -20 -2 0
v -20 -1 0
v -19 -1 0
v -20 -2 0
v -21 -2 0
v -21 -1 0
v -20 -1 0
v -21 -2 0
v -22 -2 0
v -22 -1 0
v -21 -1 0
v -22 -2 0
v -23 -2 0
v -23 -1 0
v -22 -1 0
v -23 -2 0
v -24 -2 0
v -24 -1 0
v -23 -1 0
v -24 -2 0
v -25 -2 0
v -25 -1 0
v -24 -1 0
v -25 -2 0
v -26 -2 0
v -26 -1 0
v -25 -1 0
v -26 -2 0
v -27 -2 0
v -27 -1 0
v -26 -1 0
v -27 -2 0
v -28 -2 0
v -28 -1 0
v -27 -1 0
v -28 -2 0
v -29 -2 0
v -29 -1 0
v -28 -1 0
v -29 -2 0
v -30 -2 0
v -30 -1 0
v -29 -1 0
v -30 -2 0
v -31 -2 0
v -31 -1 0
v -30 -1 0
v -31 -2 0
v -32 -2 0
v -32 -1 0
v -31 -1 0
v 0 -3 0
v -1 -3 0
v -1 -2 0
v 0 -2 0
v -1 -3 0
v -2 -3 0
v -2 -2 0
v -1 -2 0
v -2 -3 0
v -3 -3 0
v -3 -2 0
v -2 -2 0
v -3 -3 0
v -4 -3 0
v -4 -2 0
v -3 -2 0
v -4 -3 0
v -5 -3 0
v -5 -2 0
v -4 -2 0
v -5 -3 0
v -6 -3 0
v -6 -2 0
v -5 -2 0
v -6 -3 0
v -7 -3 0
v -7 -2 0
v -6 -2 0
v -7 -3 0
v -8 -3 0
v -8 -2 0
v -7 -2 0
v -8 -3 0
v -9 -3 0
v -9 -2 0
v -8 -2 0
v -9 -3 0
v -10 -3 0
v -10 -2 0
v -9 -2 0
v -10 -3 0
v -11 -3 0
v -11 -2 0
v -10 -2 0
v -11 -3 0
v -12 -3 0
v -12 -2 0
v -11 -2 0
v -12 -3 0
v -13 -3 0
v -13 -2 0
v -12 -2 0
v -13 -3 0
v -14 -3 0
v -14 -2 0
v -13 -2 0
v -14 -3 0
v -15 -3 0
v -15 -2 0
v -14 -2 0
v -15 -3 0
v -16 -3 0
v -16 -2 0
v -15 -2 0
v -16 -3 0
v -17 -3 0
v -17 -2 0
v -16 -2 0
v -17 -3 0
v -18 -3 0
v -18 -2 0
v -17 -2 0
v -18 -3 0
v -19 -3 0
v -19 -2 0
v -18 -2 0
v -19 -3 0
v -20 -3 0
v -20 -2 0
v -19 -2 0
v -20 -3 0
v -21 -3 0
v -21 -2 0
v -20 -2 0
v -21 -3 0
v -22 -3 0
v -22 -2 0
v -21 -2 0
v -22 -3 0
v -23 -3 0
v -23 -2 0
v -22 -2 0
v -23 -3 0
v -24 -3 0
v -24 -2 0
v -23 -2 0
v -24 -3 0
v -25 -3 0
v -25 -2 0
v -24 -2 0
v -25 -3 0
v -26 -3 0
v -26 -2 0
v -25 -2 0
v -26 -3 0
v -27 -3 0
v -27 -2 0
v -26 -2 0
v -27 -3 0
v -28 -3 0
v -28 -2 0
v -27 -2 0
v -28 -3 0
v -29 -3 0
v -29 -2 0
v -28 -2 0
v -29 -3 0
v -30 -3 0
v -30 -2 0
v -29 -2 0
v -30 -3 0
v -31 -3 0
v -31 -2 0
v -30 -2 0
v -31 -3 0
v -32 -3 0
v -32 -2 0
v -31 -2 0

# Texture cooridinates (Count = 168)
vt 0.06678874 0.9167888
vt 0.09987793 0.9167888
vt 0.09987793 0.9998779
vt 0.06678874 0.9998779
vt 0.0001220703 0.9167888
vt 0.03321126 0.9167888
vt 0.03321126 0.9998779
vt 0.0001220703 0.9998779
vt 0.1667887 0.9167888
vt 0.1998779 0.9167888
vt 0.1998779 0.9998779
vt 0.1667887 0.9998779
vt 0.2001221 0.9167888
vt 0.2332113 0.9167888
vt 0.2332113 0.9998779
vt 0.2001221 0.9998779
vt 0.3001221 0.9167888
vt 0.3332113 0.9167888
vt 0.3332113 0.9998779
vt 0.3001221 0.9998779
vt 0.3334554 0.9167888
vt 0.3665446 0.9167888
vt 0.3665446 0.9998779
vt 0.3334554 0.9998779
vt 0.4667887 0.9167888
vt 0.4998779 0.9167888
vt 0.4998779 0.9998779
vt 0.4667887 0.9998779
vt 0.5001221 0.9167888
vt 0.5332113 0.9167888
vt 0.5332113 0.9998779
vt 0.5001221 0.9998779
vt 0.5334554 0.9167888
vt 0.5665446 0.9167888
vt 0.5665446 0.9998779
vt 0.5334554 0.9998779
vt 0.8667887 0.9167888
vt 0.8998779 0.9167888
vt 0.8998779 0.9998779
vt 0.8667887 0.9998779
vt 0.7667887 0.9167888
vt 0.7998779 0.9167888
vt 0.7998779 0.9998779
vt 0.7667887 0.9998779
vt 0.8001221 0.9167888
vt 0.8332112 0.9167888
vt 0.8332112 0.9998779
vt 0.8001221 0.9998779
vt 0.900122 0.9167888
vt 0.9332113 0.9167888
vt 0.9332113 0.9998779
vt 0.900122 0.9998779
vt 0.03345541 0.9167888
vt 0.0665446 0.9167888
vt 0.0665446 0.9998779
vt 0.03345541 0.9998779
vt 0.06678874 0.8334554
vt 0.09987793 0.8334554
vt 0.09987793 0.9165446
vt 0.06678874 0.9165446
vt 0.0001220703 0.8334554
vt 0.03321126 0.8334554
vt 0.03321126 0.9165446
vt 0.0001220703 0.9165446
vt 0.1667887 0.8334554
vt 0.1998779 0.8334554
vt 0.1998779 0.9165446
vt 0.1667887 0.9165446
vt 0.2001221 0.8334554
vt 0.2332113 0.8334554
vt 0.2332113 0.9165446
vt 0.2001221 0.9165446
vt 0.3001221 0.8334554
vt 0.3332113 0.8334554
vt 0.3332113 0.9165446
vt 0.3001221 0.9165446
vt 0.3334554 0.8334554
vt 0.3665446 0.8334554
vt 0.3665446 0.9165446
vt 0.3334554 0.9165446
vt 0.4667887 0.8334554
vt 0.4998779 0.8334554
vt 0.4998779 0.9165446
vt 0.4667887 0.9165446
vt 0.5001221 0.8334554
vt 0.5332113 0.8334554
vt 0.5332113 0.9165446
vt 0.5001221 0.9165446
vt 0.5334554 0.8334554
vt 0.5665446 0.8334554
vt 0.5665446 0.9165446
vt 0.5334554 0.9165446
vt 0.8667887 0.8334554
vt 0.8998779 0.8334554
vt 0.8998779 0.9165446
vt 0.8667887 0.9165446
vt 0.7667887 0.8334554
vt 0.7998779 0.8334554
vt 0.7998779 0.9165446
vt 0.7667887 0.9165446
vt 0.8001221 0.8334554
vt 0.8332112 0.8334554
vt 0.8332112 0.9165446
vt 0.8001221 0.9165446
vt 0.900122 0.8334554
vt 0.9332113 0.8334554
vt 0.9332113 0.9165446
vt 0.900122 0.9165446
vt 0.03345541 0.8334554
vt 0.0665446 0.8334554
vt 0.0665446 0.9165446
vt 0.03345541 0.9165446
vt 0.06678874 0.7501221
vt 0.09987793 0.7501221
vt 0.09987793 0.8332112
vt 0.06678874 0.8332112
vt 0.0001220703 0.7501221
vt 0.03321126 0.7501221
vt 0.03321126 0.8332112
vt 0.0001220703 0.8332112
vt 0.1667887 0.7501221
vt 0.1998779 0.7501221
vt 0.1998779 0.8332112
vt 0.1667887 0.8332112
vt 0.2001221 0.7501221
vt 0.2332113 0.7501221
vt 0.2332113 0.8332112
vt 0.2001221 0.8332112
vt 0.3001221 0.7501221
vt 0.3332113 0.7501221
vt 0.3332113 0.8332112
vt 0.3001221 0.8332112
vt 0.3334554 0.7501221
vt 0.3665446 0.7501221
vt 0.3665446 0.8332112
vt 0.3334554 0.8332112
vt 0.4667887 0.7501221
vt 0.4998779 0.7501221
vt 0.4998779 0.8332112
vt 0.4667887 0.8332112
vt 0.5001221 0.7501221
vt 0.5332113 0.7501221
vt 0.5332113 0.8332112
vt 0.5001221 0.8332112
vt 0.5334554 0.7501221
vt 0.5665446 0.7501221
vt 0.5665446 0.8332112
vt 0.5334554 0.8332112
vt 0.8667887 0.7501221
vt 0.8998779 0.7501221
vt 0.8998779 0.8332112
vt 0.8667887 0.8332112
vt 0.7667887 0.7501221
vt 0.7998779 0.7501221
vt 0.7998779 0.8332112
vt 0.7667887 0.8332112
vt 0.8001221 0.7501221
vt 0.8332112 0.7501221
vt 0.8332112 0.8332112
vt 0.8001221 0.8332112
vt 0.900122 0.7501221
vt 0.9332113 0.7501221
vt 0.9332113 0.8332112
vt 0.900122 0.8332112
vt 0.03345541 0.7501221
vt 0.0665446 0.7501221
vt 0.0665446 0.8332112
vt 0.03345541 0.8332112

# Normal
vn 0 0 -1

# Mesh description
g office_mesh_0001

# Faces
f 1/1/1 2/2/1 3/3/1 4/4/1
f 5/5/1 6/6/1 7/7/1 8/8/1
f 9/5/1 10/6/1 11/7/1 12/8/1
f 13/5/1 14/6/1 15/7/1 16/8/1
f 17/5/1 18/6/1 19/7/1 20/8/1
f 21/5/1 22/6/1 23/7/1 24/8/1
f 25/9/1 26/10/1 27/11/1 28/12/1
f 29/13/1 30/14/1 31/15/1 32/16/1
f 33/5/1 34/6/1 35/7/1 36/8/1
f 37/5/1 38/6/1 39/7/1 40/8/1
f 41/5/1 42/6/1 43/7/1 44/8/1
f 45/17/1 46/18/1 47/19/1 48/20/1
f 49/21/1 50/22/1 51/23/1 52/24/1
f 53/5/1 54/6/1 55/7/1 56/8/1
f 57/25/1 58/26/1 59/27/1 60/28/1
f 61/29/1 62/30/1 63/31/1 64/32/1
f 65/33/1 66/34/1 67/35/1 68/36/1
f 69/5/1 70/6/1 71/7/1 72/8/1
f 73/5/1 74/6/1 75/7/1 76/8/1
f 77/5/1 78/6/1 79/7/1 80/8/1
f 81/5/1 82/6/1 83/7/1 84/8/1
f 85/37/1 86/38/1 87/39/1 88/40/1
f 89/41/1 90/42/1 91/43/1 92/44/1
f 93/45/1 94/46/1 95/47/1 96/48/1
f 97/9/1 98/10/1 99/11/1 100/12/1
f 101/13/1 102/14/1 103/15/1 104/16/1
f 105/49/1 106/50/1 107/51/1 108/52/1
f 109/5/1 110/6/1 111/7/1 112/8/1
f 113/5/1 114/6/1 115/7/1 116/8/1
f 117/5/1 118/6/1 119/7/1 120/8/1
f 121/5/1 122/6/1 123/7/1 124/8/1
f 125/53/1 126/54/1 127/55/1 128/56/1
f 129/57/1 130/58/1 131/59/1 132/60/1
f 133/61/1 134/62/1 135/63/1 136/64/1
f 137/61/1 138/62/1 139/63/1 140/64/1
f 141/61/1 142/62/1 143/63/1 144/64/1
f 145/61/1 146/62/1 147/63/1 148/64/1
f 149/61/1 150/62/1 151/63/1 152/64/1
f 153/65/1 154/66/1 155/67/1 156/68/1
f 157/69/1 158/70/1 159/71/1 160/72/1
f 161/61/1 162/62/1 163/63/1 164/64/1
f 165/61/1 166/62/1 167/63/1 168/64/1
f 169/61/1 170/62/1 171/63/1 172/64/1
f 173/73/1 174/74/1 175/75/1 176/76/1
f 177/77/1 178/78/1 179/79/1 180/80/1
f 181/61/1 182/62/1 183/63/1 184/64/1
f 185/81/1 186/82/1 187/83/1 188/84/1
f 189/85/1 190/86/1 191/87/1 192/88/1
f 193/89/1 194/90/1 195/91/1 196/92/1
f 197/61/1 198/62/1 199/63/1 200/64/1
f 201/61/1 202/62/1 203/63/1 204/64/1
f 205/61/1 206/62/1 207/63/1 208/64/1
f 209/61/1 210/62/1 211/63/1 212/64/1
f 213/93/1 214/94/1 215/95/1 216/96/1
f 217/97/1 218/98/1 219/99/1 220/100/1
f 221/101/1 222/102/1 223/103/1 224/104/1
f 225/65/1 226/66/1 227/67/1 228/68/1
f 229/69/1 230/70/1 231/71/1 232/72/1
f 233/105/1 234/106/1 235/107/1 236/108/1
f 237/61/1 238/62/1 239/63/1 240/64/1
f 241/61/1 242/62/1 243/63/1 244/64/1
f 245/61/1 246/62/1 247/63/1 248/64/1
f 249/61/1 250/62/1 251/63/1 252/64/1
f 253/109/1 254/110/1 255/111/1 256/112/1
f 257/113/1 258/114/1 259/115/1 260/116/1
f 261/117/1 262/118/1 263/119/1 264/120/1
f 265/117/1 266/118/1 267/119/1 268/120/1
f 269/117/1 270/118/1 271/119/1 272/120/1
f 273/117/1 274/118/1 275/119/1 276/120/1
f 277/117/1 278/118/1 279/119/1 280/120/1
f 281/121/1 282/122/1 283/123/1 284/124/1
f 285/125/1 286/126/1 287/127/1 288/128/1
f 289/117/1 290/118/1 291/119/1 292/120/1
f 293/117/1 294/118/1 295/119/1 296/120/1
f 297/117/1 298/118/1 299/119/1 300/120/1
f 301/129/1 302/130/1 303/131/1 304/132/1
f 305/133/1 306/134/1 307/135/1 308/136/1
f 309/117/1 310/118/1 311/119/1 312/120/1
f 313/137/1 314/138/1 315/139/1 316/140/1
f 317/141/1 318/142/1 319/143/1 320/144/1
f 321/145/1 322/146/1 323/147/1 324/148/1
f 325/117/1 326/118/1 327/119/1 328/120/1
f 329/117/1 330/118/1 331/119/1 332/120/1
f 333/117/1 334/118/1 335/119/1 336/120/1
f 337/117/1 338/118/1 339/119/1 340/120/1
f 341/149/1 342/150/1 343/151/1 344/152/1
f 345/153/1 346/154/1 347/155/1 348/156/1
f 349/157/1 350/158/1 351/159/1 352/160/1
f 353/121/1 354/122/1 355/123/1 356/124/1
f 357/125/1 358/126/1 359/127/1 360/128/1
f 361/161/1 362/162/1 363/163/1 364/164/1
f 365/117/1 366/118/1 367/119/1 368/120/1
f 369/117/1 370/118/1 371/119/1 372/120/1
f 373/117/1 374/118/1 375/119/1 376/120/1
f 377/117/1 378/118/1 379/119/1 380/120/1
f 381/165/1 382/166/1 383/167/1 384/168/1

