# Tiled2Unity generated file. Do not modify by hand.
# Wavefront file for 'office_mesh_0002.obj'

# Vertices (Count = 100)
v -7 -6 0
v -8 -6 0
v -8 -5 0
v -7 -5 0
v -8 -6 0
v -9 -6 0
v -9 -5 0
v -8 -5 0
v -20 -6 0
v -21 -6 0
v -21 -5 0
v -20 -5 0
v -7 -7 0
v -8 -7 0
v -8 -6 0
v -7 -6 0
v -8 -7 0
v -9 -7 0
v -9 -6 0
v -8 -6 0
v -9 -7 0
v -10 -7 0
v -10 -6 0
v -9 -6 0
v -10 -7 0
v -11 -7 0
v -11 -6 0
v -10 -6 0
v -11 -7 0
v -12 -7 0
v -12 -6 0
v -11 -6 0
v -12 -7 0
v -13 -7 0
v -13 -6 0
v -12 -6 0
v -20 -7 0
v -21 -7 0
v -21 -6 0
v -20 -6 0
v -21 -7 0
v -22 -7 0
v -22 -6 0
v -21 -6 0
v -22 -7 0
v -23 -7 0
v -23 -6 0
v -22 -6 0
v -23 -7 0
v -24 -7 0
v -24 -6 0
v -23 -6 0
v -24 -7 0
v -25 -7 0
v -25 -6 0
v -24 -6 0
v -30 -7 0
v -31 -7 0
v -31 -6 0
v -30 -6 0
v -9 -8 0
v -10 -8 0
v -10 -7 0
v -9 -7 0
v -10 -8 0
v -11 -8 0
v -11 -7 0
v -10 -7 0
v -11 -8 0
v -12 -8 0
v -12 -7 0
v -11 -7 0
v -12 -8 0
v -13 -8 0
v -13 -7 0
v -12 -7 0
v -20 -8 0
v -21 -8 0
v -21 -7 0
v -20 -7 0
v -21 -8 0
v -22 -8 0
v -22 -7 0
v -21 -7 0
v -22 -8 0
v -23 -8 0
v -23 -7 0
v -22 -7 0
v -23 -8 0
v -24 -8 0
v -24 -7 0
v -23 -7 0
v -24 -8 0
v -25 -8 0
v -25 -7 0
v -24 -7 0
v -30 -8 0
v -31 -8 0
v -31 -7 0
v -30 -7 0

# Texture cooridinates (Count = 76)
vt 0.3001221 0.9167888
vt 0.3332113 0.9167888
vt 0.3332113 0.9998779
vt 0.3001221 0.9998779
vt 0.3334554 0.9167888
vt 0.3665446 0.9167888
vt 0.3665446 0.9998779
vt 0.3334554 0.9998779
vt 0.1334554 0.6667887
vt 0.1665446 0.6667887
vt 0.1665446 0.7498779
vt 0.1334554 0.7498779
vt 0.3001221 0.8334554
vt 0.3332113 0.8334554
vt 0.3332113 0.9165446
vt 0.3001221 0.9165446
vt 0.3334554 0.8334554
vt 0.3665446 0.8334554
vt 0.3665446 0.9165446
vt 0.3334554 0.9165446
vt 0.03345541 0.5834554
vt 0.0665446 0.5834554
vt 0.0665446 0.6665446
vt 0.03345541 0.6665446
vt 0.06678874 0.5834554
vt 0.09987793 0.5834554
vt 0.09987793 0.6665446
vt 0.06678874 0.6665446
vt 0.1001221 0.5834554
vt 0.1332113 0.5834554
vt 0.1332113 0.6665446
vt 0.1001221 0.6665446
vt 0.0001220703 0.5834554
vt 0.03321126 0.5834554
vt 0.03321126 0.6665446
vt 0.0001220703 0.6665446
vt 0.1334554 0.5834554
vt 0.1665446 0.5834554
vt 0.1665446 0.6665446
vt 0.1334554 0.6665446
vt 0.8334554 0.8334554
vt 0.8665446 0.8334554
vt 0.8665446 0.9165446
vt 0.8334554 0.9165446
vt 0.2001221 0.5834554
vt 0.2332113 0.5834554
vt 0.2332113 0.6665446
vt 0.2001221 0.6665446
vt 0.03345541 0.5001221
vt 0.0665446 0.5001221
vt 0.0665446 0.5832113
vt 0.03345541 0.5832113
vt 0.06678874 0.5001221
vt 0.09987793 0.5001221
vt 0.09987793 0.5832113
vt 0.06678874 0.5832113
vt 0.1001221 0.5001221
vt 0.1332113 0.5001221
vt 0.1332113 0.5832113
vt 0.1001221 0.5832113
vt 0.0001220703 0.5001221
vt 0.03321126 0.5001221
vt 0.03321126 0.5832113
vt 0.0001220703 0.5832113
vt 0.1334554 0.5001221
vt 0.1665446 0.5001221
vt 0.1665446 0.5832113
vt 0.1334554 0.5832113
vt 0.8334554 0.7501221
vt 0.8665446 0.7501221
vt 0.8665446 0.8332112
vt 0.8334554 0.8332112
vt 0.2001221 0.5001221
vt 0.2332113 0.5001221
vt 0.2332113 0.5832113
vt 0.2001221 0.5832113

# Normal
vn 0 0 -1

# Mesh description
g office_mesh_0002

# Faces
f 1/1/1 2/2/1 3/3/1 4/4/1
f 5/5/1 6/6/1 7/7/1 8/8/1
f 9/9/1 10/10/1 11/11/1 12/12/1
f 13/13/1 14/14/1 15/15/1 16/16/1
f 17/17/1 18/18/1 19/19/1 20/20/1
f 21/21/1 22/22/1 23/23/1 24/24/1
f 25/25/1 26/26/1 27/27/1 28/28/1
f 29/29/1 30/30/1 31/31/1 32/32/1
f 33/33/1 34/34/1 35/35/1 36/36/1
f 37/37/1 38/38/1 39/39/1 40/40/1
f 41/21/1 42/22/1 43/23/1 44/24/1
f 45/25/1 46/26/1 47/27/1 48/28/1
f 49/29/1 50/30/1 51/31/1 52/32/1
f 53/41/1 54/42/1 55/43/1 56/44/1
f 57/45/1 58/46/1 59/47/1 60/48/1
f 61/49/1 62/50/1 63/51/1 64/52/1
f 65/53/1 66/54/1 67/55/1 68/56/1
f 69/57/1 70/58/1 71/59/1 72/60/1
f 73/61/1 74/62/1 75/63/1 76/64/1
f 77/65/1 78/66/1 79/67/1 80/68/1
f 81/49/1 82/50/1 83/51/1 84/52/1
f 85/53/1 86/54/1 87/55/1 88/56/1
f 89/57/1 90/58/1 91/59/1 92/60/1
f 93/69/1 94/70/1 95/71/1 96/72/1
f 97/73/1 98/74/1 99/75/1 100/76/1

